HIERARCHY
ROOT Hips
{
	OFFSET -0.001795 -0.223333 0.028219
	CHANNELS 6 Xposition Yposition Zposition Zrotation Yrotation Xrotation 
	JOINT LeftUpLeg
	{
		OFFSET 0.069520 -0.091406 -0.006815
		CHANNELS 3 Zrotation Yrotation Xrotation
		JOINT LeftLeg
		{
			OFFSET 0.034277 -0.375199 -0.004496
			CHANNELS 3 Zrotation Yrotation Xrotation
			JOINT LeftFoot
			{
				OFFSET -0.013596 -0.397961 -0.043693
				CHANNELS 3 Zrotation Yrotation Xrotation
				JOINT LeftToe
				{
					OFFSET 0.026358 -0.055791 0.119288
					CHANNELS 3 Zrotation Yrotation Xrotation
					End Site
					{
						OFFSET 0.000000 0.000000 0.000000
					}
				}
			}
		}
	}
	JOINT RightUpLeg
	{
		OFFSET -0.067670 -0.090522 -0.004320
		CHANNELS 3 Zrotation Yrotation Xrotation
		JOINT RightLeg
		{
			OFFSET -0.038290 -0.382569 -0.008850
			CHANNELS 3 Zrotation Yrotation Xrotation
			JOINT RightFoot
			{
				OFFSET 0.015774 -0.398415 -0.042312
				CHANNELS 3 Zrotation Yrotation Xrotation
				JOINT RightToe
				{
					OFFSET -0.025372 -0.048144 0.123348
					CHANNELS 3 Zrotation Yrotation Xrotation
					End Site
					{
						OFFSET 0.000000 0.000000 0.000000
					}
				}
			}
		}
	}
	JOINT Spine
	{
		OFFSET -0.002533 0.108963 -0.026696
		CHANNELS 3 Zrotation Yrotation Xrotation
		JOINT Spine1
		{
			OFFSET 0.005487 0.135180 0.001092
			CHANNELS 3 Zrotation Yrotation Xrotation
			JOINT Spine2
			{
				OFFSET 0.001457 0.052922 0.025425
				CHANNELS 3 Zrotation Yrotation Xrotation
				JOINT Neck
				{
					OFFSET -0.002778 0.213870 -0.042857
					CHANNELS 3 Zrotation Yrotation Xrotation
					JOINT Head
					{
						OFFSET 0.005152 0.064970 0.051349
						CHANNELS 3 Zrotation Yrotation Xrotation
						End Site
						{
							OFFSET 0.000000 0.000000 0.000000
						}
					}
				}
				JOINT LeftShoulder
				{
					OFFSET 0.078845 0.121749 -0.034090
					CHANNELS 3 Zrotation Yrotation Xrotation
					JOINT LeftArm
					{
						OFFSET 0.090977 0.030469 -0.008868
						CHANNELS 3 Zrotation Yrotation Xrotation
						JOINT LeftForeArm
						{
							OFFSET 0.259612 -0.012772 -0.027456
							CHANNELS 3 Zrotation Yrotation Xrotation
							JOINT LeftHand
							{
								OFFSET 0.249234 0.008986 -0.001171
								CHANNELS 3 Zrotation Yrotation Xrotation
								End Site
								{
									OFFSET 0.000000 0.000000 0.000000
								}
							}
						}
					}
				}
				JOINT RightShoulder
				{
					OFFSET -0.081759 0.118833 -0.038615
					CHANNELS 3 Zrotation Yrotation Xrotation
					JOINT RightArm
					{
						OFFSET -0.096012 0.032551 -0.009143
						CHANNELS 3 Zrotation Yrotation Xrotation
						JOINT RightForeArm
						{
							OFFSET -0.253742 -0.013329 -0.021401
							CHANNELS 3 Zrotation Yrotation Xrotation
							JOINT RightHand
							{
								OFFSET -0.255298 0.007772 -0.005559
								CHANNELS 3 Zrotation Yrotation Xrotation
								End Site
								{
									OFFSET 0.000000 0.000000 0.000000
								}
							}
						}
					}
				}
			}
		}
	}
}
MOTION
Frames: 16
Frame Time: 0.050000
0.000000 0.945431 0.000000 1.029487 14.563311 8.871366 5.926983 -0.816780 -10.218060 -4.675007 0.323842 -0.166515 7.599894 17.618867 11.634735 0.000000 0.000000 0.000000 -6.948036 0.383938 -18.143922 -0.006804 0.099180 3.967364 -0.209485 -2.957918 10.566278 0.000000 0.000000 0.000000 7.770847 -1.457709 9.038175 2.291319 -0.923993 -1.991168 -3.167278 -0.863207 11.843991 11.730070 -5.567742 -16.280722 0.000000 0.000000 0.000000 -6.148284 -31.610319 11.683147 -39.526392 -39.729040 7.374904 44.969361 -64.583530 -27.351198 0.000000 0.000000 0.000000 13.948643 18.596497 9.855098 57.489871 38.918032 13.834598 -23.812563 49.609752 -6.986221 0.000000 0.000000 0.000000 
-0.000429 0.943901 -0.000521 0.846386 14.343662 9.345015 5.565086 -0.834324 -10.382093 -3.805128 0.272964 -0.939143 8.658156 19.094663 11.436021 0.000000 0.000000 0.000000 -7.373689 0.342695 -18.218333 1.494710 -0.159952 2.838323 -0.165312 -2.969132 10.863667 0.000000 0.000000 0.000000 7.927607 -1.457475 8.734655 2.647341 -1.008778 -2.775592 -2.855082 -0.497084 12.746541 12.879770 -6.657944 -15.058558 0.000000 0.000000 0.000000 -7.446775 -30.705379 11.501576 -35.802323 -41.330982 6.804524 48.078535 -64.518998 -29.450448 0.000000 0.000000 0.000000 13.679894 17.914295 9.539952 59.188533 39.093126 14.475541 -22.874430 50.756037 -6.569820 0.000000 0.000000 0.000000 
-0.000774 0.944182 -0.000618 0.617266 14.105996 9.342129 6.240517 -0.854980 -10.987323 -4.460127 0.317294 0.412597 8.365921 18.810508 12.219384 0.000000 0.000000 0.000000 -6.971157 0.416265 -18.363354 0.972859 -0.063104 3.802822 0.793260 -1.126972 10.995323 0.000000 0.000000 0.000000 8.308913 -1.381027 7.791649 3.125234 -1.270221 -2.275094 -3.739393 -1.165151 11.671265 12.710018 -7.008174 -13.272314 0.000000 0.000000 0.000000 -6.323906 -31.125089 11.597492 -34.376721 -43.103599 6.989577 44.640257 -58.128627 -23.795005 0.000000 0.000000 0.000000 14.436532 17.962663 9.523824 58.466768 37.762324 13.470089 -18.257323 52.794198 -4.921198 0.000000 0.000000 0.000000 
-0.000832 0.943799 -0.000410 0.562721 14.123577 9.424593 6.017408 -0.870500 -11.158841 -3.832832 0.274461 0.210225 9.443274 20.285441 11.911627 0.000000 0.000000 0.000000 -7.225478 0.381285 -18.185119 1.671419 -0.183697 3.240074 1.401614 0.138975 10.755426 0.000000 0.000000 0.000000 8.780105 -1.353201 7.096702 3.186785 -1.374476 -1.532976 -3.630886 -1.429243 11.136643 13.539341 -7.526359 -13.440069 0.000000 0.000000 0.000000 -5.817298 -31.967312 11.917377 -31.445677 -43.304241 6.213700 47.099552 -55.007001 -23.703803 0.000000 0.000000 0.000000 12.124468 17.437515 8.709591 59.552097 38.498357 14.514368 -17.583964 52.945233 -4.723210 0.000000 0.000000 0.000000 
-0.000888 0.943772 0.000018 0.919777 14.277740 9.300379 5.359940 -0.864083 -10.817258 -3.352835 0.235453 0.621771 9.035258 19.674592 11.618454 0.000000 0.000000 0.000000 -7.569855 0.316081 -18.053061 1.493379 -0.151480 3.786096 1.651334 0.712982 10.543303 0.000000 0.000000 0.000000 8.839671 -1.368450 7.175209 3.984997 -1.675359 -2.098680 -4.437764 -1.978050 11.246017 13.532467 -7.700251 -12.883738 0.000000 0.000000 0.000000 -5.754113 -32.211162 12.054043 -27.564317 -44.585068 5.327904 46.927373 -51.028750 -21.606743 0.000000 0.000000 0.000000 11.667479 17.240033 8.462965 58.914583 37.671420 13.790967 -14.511006 54.856263 -3.442082 0.000000 0.000000 0.000000 
-0.000911 0.944529 0.000388 0.787949 13.523384 9.264530 5.026757 -0.852322 -10.670322 -2.665477 0.189124 0.614981 9.439166 20.220035 11.694221 0.000000 0.000000 0.000000 -7.328355 0.392328 -18.185895 1.399072 -0.129410 3.823450 2.041907 1.356897 10.679707 0.000000 0.000000 0.000000 8.787313 -1.372585 7.301813 4.265842 -1.829706 -1.866464 -4.284730 -2.054287 10.521699 13.490426 -7.583273 -13.209456 0.000000 0.000000 0.000000 -5.257283 -31.584347 11.772554 -25.654653 -45.661741 4.990302 47.515057 -47.186144 -20.012578 0.000000 0.000000 0.000000 11.642555 17.140181 8.297063 57.558611 37.239317 13.107091 -12.402599 56.040343 -2.572642 0.000000 0.000000 0.000000 
-0.000927 0.944563 0.000653 0.982837 12.965451 9.359923 4.700938 -0.829662 -10.294651 -2.675167 0.198083 0.295565 9.665385 20.537012 11.968521 0.000000 0.000000 0.000000 -7.544276 0.381473 -18.379031 1.222932 -0.095097 3.936055 2.234998 1.722950 10.534741 0.000000 0.000000 0.000000 8.670635 -1.329953 7.129617 4.302961 -1.820185 -2.110223 -4.590435 -2.398113 10.497656 13.541161 -7.685310 -13.116972 0.000000 0.000000 0.000000 -5.018681 -30.984369 11.553814 -23.752400 -46.048224 4.462370 48.105276 -44.463050 -18.930203 0.000000 0.000000 0.000000 12.020011 16.682614 8.023598 56.596409 36.617283 12.384275 -9.456795 57.751721 -1.174293 0.000000 0.000000 0.000000 
-0.000920 0.944809 0.000726 0.813750 12.101876 9.311175 4.638281 -0.802691 -10.006618 -2.710185 0.205595 0.359140 9.931983 20.813664 11.334725 0.000000 0.000000 0.000000 -7.273014 0.467042 -18.549008 1.136622 -0.072622 4.087160 2.706684 2.511643 10.670702 0.000000 0.000000 0.000000 8.782964 -1.383453 7.482224 4.061137 -1.638795 -2.817915 -4.549314 -2.495171 10.961057 13.254156 -7.547035 -13.163864 0.000000 0.000000 0.000000 -5.287520 -30.368768 11.426629 -23.189819 -46.625888 4.374024 49.329055 -42.069984 -18.243801 0.000000 0.000000 0.000000 12.231196 16.146816 7.688971 55.701884 35.836369 11.582315 -6.417207 59.632940 0.417454 0.000000 0.000000 0.000000 
-0.000999 0.944585 0.000971 0.694952 11.473464 9.442484 4.714724 -0.782199 -9.787835 -2.882184 0.227082 0.046196 10.232804 21.226515 11.466188 0.000000 0.000000 0.000000 -7.172602 0.515054 -18.805655 0.952383 -0.040404 3.932602 3.233814 3.415147 10.870309 0.000000 0.000000 0.000000 9.044941 -1.383847 7.251488 3.993582 -1.603326 -2.894463 -4.790021 -2.652021 11.083467 12.956157 -7.217901 -13.844231 0.000000 0.000000 0.000000 -6.032150 -29.941807 11.452450 -23.451634 -46.447823 4.461944 50.298867 -40.449972 -17.802414 0.000000 0.000000 0.000000 12.603216 15.632635 7.393957 55.018089 35.508978 11.147695 -5.086863 60.062582 1.085452 0.000000 0.000000 0.000000 
-0.001223 0.944087 0.001618 0.797560 11.151794 9.438049 4.814092 -0.756399 -9.455842 -2.898194 0.232514 -0.126970 10.307956 21.306779 11.395037 0.000000 0.000000 0.000000 -7.056009 0.548619 -18.950635 0.896903 -0.027730 4.024308 3.339871 3.611350 10.803013 0.000000 0.000000 0.000000 9.176354 -1.420080 7.424982 3.876396 -1.499034 -3.454701 -4.969948 -3.142773 11.287181 12.630734 -6.912756 -14.454189 0.000000 0.000000 0.000000 -7.104086 -29.711146 11.654528 -23.699062 -45.885654 4.480916 51.226729 -38.927715 -17.339527 0.000000 0.000000 0.000000 12.670749 15.336683 7.129206 54.514008 34.557034 10.461045 -2.239899 60.931949 2.611029 0.000000 0.000000 0.000000 
-0.001593 0.943420 0.002605 0.657724 10.986777 9.277479 5.046926 -0.732124 -9.174830 -2.815940 0.229259 -0.275573 10.192832 21.141135 11.554881 0.000000 0.000000 0.000000 -6.880955 0.581916 -18.819302 0.855044 -0.019005 4.077390 3.103695 3.169216 10.669672 0.000000 0.000000 0.000000 9.297167 -1.407350 7.268954 3.650764 -1.366198 -3.841712 -5.057127 -3.717525 11.680777 12.624269 -6.948445 -14.667370 0.000000 0.000000 0.000000 -8.627731 -29.383018 11.912184 -24.107451 -45.408122 4.540767 50.522127 -38.550060 -16.752920 0.000000 0.000000 0.000000 13.163484 14.932501 6.853654 54.243139 33.230581 9.625961 1.327705 60.672399 4.492943 0.000000 0.000000 0.000000 
-0.002026 0.942848 0.003722 0.526987 11.127632 9.083427 5.337567 -0.700991 -8.711220 -3.264557 0.265605 -0.763517 10.368603 21.379673 11.642407 0.000000 0.000000 0.000000 -6.757873 0.592368 -18.512327 1.009649 -0.044997 4.073383 2.824319 2.847343 10.068235 0.000000 0.000000 0.000000 9.257079 -1.372549 7.082584 3.545512 -1.278999 -4.297832 -5.300987 -3.878109 11.847261 12.562858 -6.968265 -14.482194 0.000000 0.000000 0.000000 -9.783839 -29.440505 12.168384 -24.867189 -44.906710 4.696006 50.017149 -38.222964 -16.388545 0.000000 0.000000 0.000000 14.247333 14.531629 6.761221 53.179092 30.971195 8.185033 5.266456 60.305973 6.658582 0.000000 0.000000 0.000000 
-0.002486 0.942733 0.004906 0.465246 11.459463 8.949477 5.591717 -0.689516 -8.511010 -3.435638 0.275300 -0.793237 10.327286 21.318762 11.604416 0.000000 0.000000 0.000000 -6.508448 0.612087 -18.167209 0.918958 -0.035066 3.914198 2.389434 2.136228 9.700298 0.000000 0.000000 0.000000 9.292684 -1.316931 6.656307 3.209487 -1.098496 -4.697810 -5.349987 -4.281624 12.359773 12.497822 -6.921462 -14.749105 0.000000 0.000000 0.000000 -11.165486 -29.738813 12.632656 -25.043592 -44.385567 4.633386 49.346365 -37.818964 -15.897809 0.000000 0.000000 0.000000 14.930844 13.986121 6.511286 52.484899 28.381569 6.715081 9.169189 59.695495 8.721202 0.000000 0.000000 0.000000 
-0.003018 0.942769 0.006182 0.416716 11.662876 8.637526 5.905159 -0.653783 -7.882131 -3.571698 0.284786 -1.106505 10.448287 21.489684 11.886363 0.000000 0.000000 0.000000 -6.453895 0.603362 -17.651401 1.182682 -0.079856 3.875689 2.019778 1.628704 9.028833 0.000000 0.000000 0.000000 9.259234 -1.248003 6.250632 2.939510 -0.917581 -5.488915 -5.618099 -4.424456 13.512236 12.648718 -6.887632 -15.658274 0.000000 0.000000 0.000000 -11.651440 -29.951033 12.825921 -26.148222 -43.898729 4.811221 50.052152 -37.842712 -16.167596 0.000000 0.000000 0.000000 15.647422 13.437591 6.326336 51.997368 26.461012 5.585795 12.253027 59.218815 10.412306 0.000000 0.000000 0.000000 
-0.003740 0.942906 0.007855 0.232352 11.913672 8.500336 6.237706 -0.637963 -7.524832 -3.516643 0.280211 -1.429052 10.211466 21.140674 11.740398 0.000000 0.000000 0.000000 -6.274277 0.615823 -17.338891 1.277660 -0.099369 3.702122 1.670239 1.036975 8.708405 0.000000 0.000000 0.000000 9.271778 -1.180674 5.755934 2.533701 -0.711687 -5.944944 -5.588336 -4.444390 14.102330 12.747344 -6.933557 -15.855864 0.000000 0.000000 0.000000 -12.913386 -29.706890 12.942542 -27.511832 -42.638421 4.914504 52.206655 -39.886840 -18.006739 0.000000 0.000000 0.000000 16.222013 12.526967 5.946002 52.073271 24.279404 4.516432 15.973672 59.493018 12.674921 0.000000 0.000000 0.000000 
-0.004650 0.943098 0.010012 -0.045995 12.261375 8.158039 6.789961 -0.617635 -6.988969 -3.738268 0.291359 -1.631118 10.200529 21.118341 11.822295 0.000000 0.000000 0.000000 -5.981209 0.636486 -16.875090 1.488272 -0.132626 4.053815 1.558889 1.024245 8.129653 0.000000 0.000000 0.000000 9.224039 -1.108855 5.318130 2.305757 -0.608936 -6.018642 -5.451723 -4.714268 14.306355 12.980280 -6.897823 -16.747291 0.000000 0.000000 0.000000 -13.535045 -29.030815 12.738697 -30.447119 -40.916943 5.335168 56.662963 -42.992462 -21.538833 0.000000 0.000000 0.000000 16.169207 11.610256 5.437993 52.562438 22.264007 3.651432 19.738036 61.133397 15.399662 0.000000 0.000000 0.000000 
